<svg xmlns="http://www.w3.org/2000/svg" viewBox="0 0 100 100" fill="none">
  <circle cx="50" cy="50" r="50" fill="#2081E2"/>
  <path d="M24.6 51.6L24.9 51.1L36.1 33.9C36.3 33.6 36.7 33.6 36.9 33.9C39 38.5 40.8 44.2 39.9 47.7C39.5 49.2 38.5 51.3 37.3 53.2C37.1 53.5 36.9 53.9 36.7 54.2C36.6 54.3 36.4 54.4 36.2 54.4H25C24.6 54.4 24.4 54 24.6 51.6Z" fill="white"/>
  <path d="M82.1 57.5V60.8C82.1 61 82 61.1 81.8 61.2C80.8 61.6 77.5 63.2 76.2 65C73.2 69.2 70.9 75 66.2 75H36.5C29.6 75 24 69.3 24 62.4V62.1C24 61.9 24.2 61.7 24.4 61.7H37.1C37.3 61.7 37.5 61.9 37.5 62.2C37.4 63 37.5 63.8 37.9 64.6C38.6 66.1 40.1 67 41.7 67H48V62.2H41.8C41.4 62.2 41.2 61.7 41.4 61.4C41.5 61.3 41.6 61.1 41.7 61C42.3 60.2 43.1 59 43.9 57.6C44.5 56.6 45 55.5 45.4 54.4C45.5 54.1 45.6 53.9 45.7 53.6C45.8 53.1 46 52.7 46.1 52.3C46.2 52 46.2 51.6 46.3 51.3C46.4 50.3 46.4 49.3 46.3 48.2C46.3 47.8 46.2 47.3 46.1 46.9C46.1 46.4 46 45.9 45.9 45.4C45.8 45 45.7 44.6 45.6 44.1C45.4 43.3 45.2 42.5 44.9 41.8L44.8 41.5C44.6 40.9 44.4 40.3 44.1 39.7C43.3 37.9 42.4 36.2 41.5 34.7C41.2 34.2 40.9 33.7 40.5 33.2C40 32.5 39.5 31.9 39 31.3C38.7 30.9 38.4 30.6 38.1 30.2C37.7 29.8 37.3 29.3 37 28.9L36.5 28.3C36.3 28.1 36.5 27.8 36.8 27.8L41.8 27.8H41.8L42 27.9L42.5 28L43.1 28.2C44.9 28.8 46.5 29.7 47.8 30.8C48.1 31.1 48.4 31.3 48.6 31.6C49.6 32.6 50.4 33.7 51.1 35C51.4 35.5 51.6 36 51.9 36.6C52.4 37.5 53 38.6 53.4 39.7C53.5 40 53.6 40.3 53.7 40.6C53.9 41.4 54.1 42.2 54.2 43C54.3 43.4 54.3 43.8 54.3 44.2V44.5C54.3 45.2 54.3 45.8 54.1 46.5C54 47 53.9 47.5 53.7 48.1C53.5 48.6 53.3 49.1 53.1 49.6C52.8 50.2 52.5 50.8 52.1 51.3C52 51.6 51.8 51.8 51.6 52.1C51.5 52.3 51.3 52.5 51.1 52.8C50.8 53.1 50.5 53.5 50.2 53.8C50 54.1 49.7 54.4 49.4 54.7C49 55.1 48.6 55.5 48.2 55.8C48 56 47.7 56.3 47.5 56.5C47.3 56.7 47 56.9 46.8 57.1L46.1 57.6C46 57.7 45.8 57.7 45.7 57.7L48 57.7V67H52.5C53.5 67 54.5 66.6 55.2 65.8C55.5 65.5 56.2 64.7 57.1 63.5C57.1 63.5 57.2 63.4 57.3 63.4L81.6 56.3C81.9 56.2 82.1 56.5 82.1 57.5Z" fill="white"/>
</svg>
