<svg xmlns="http://www.w3.org/2000/svg" viewBox="0 0 100 100" width="100" height="100">
  <defs>
    <linearGradient id="bladeGrad" x1="0%" y1="0%" x2="100%" y2="100%">
      <stop offset="0%" stop-color="#0052FF"/>
      <stop offset="100%" stop-color="#003ACC"/>
    </linearGradient>
  </defs>
  <!-- Three-blade propeller -->
  <g transform="translate(50,50)">
    <!-- Blade 1: top -->
    <path d="M0,-6 C8,-14 14,-32 6,-42 C2,-44 -2,-44 -6,-42 C-14,-32 -8,-14 0,-6Z" fill="url(#bladeGrad)"/>
    <!-- Blade 2: bottom-right -->
    <path d="M5.2,3 C14.1,7.1 30.7,17.7 38.4,11.1 C40.7,8.5 40.7,4.5 38.4,1.9 C30.7,-4.7 14.1,5.9 5.2,3Z" fill="url(#bladeGrad)"/>
    <!-- Blade 3: bottom-left -->
    <path d="M-5.2,3 C-14.1,7.1 -30.7,17.7 -38.4,11.1 C-40.7,8.5 -40.7,4.5 -38.4,1.9 C-30.7,-4.7 -14.1,5.9 -5.2,3Z" fill="url(#bladeGrad)"/>
    <!-- Center hub -->
    <circle cx="0" cy="0" r="7" fill="#0052FF"/>
    <circle cx="0" cy="0" r="4" fill="#FFFFFF"/>
  </g>
</svg>
