<svg xmlns="http://www.w3.org/2000/svg" viewBox="0 0 128 128" fill="none">
  <!-- Background -->
  <rect width="128" height="128" rx="24" fill="#6C5CE7"/>
  <!-- Image frame -->
  <rect x="24" y="30" width="80" height="64" rx="8" fill="white" opacity="0.95"/>
  <!-- Mountain landscape -->
  <polygon points="24,86 52,54 72,78 80,68 104,86" fill="#A29BFE"/>
  <polygon points="60,86 80,62 104,86" fill="#6C5CE7" opacity="0.7"/>
  <!-- Sun -->
  <circle cx="42" cy="50" r="10" fill="#FDCB6E"/>
  <!-- Sparkle top-right -->
  <path d="M100,20 L102,26 L108,28 L102,30 L100,36 L98,30 L92,28 L98,26 Z" fill="#FFF176"/>
  <!-- Sparkle small -->
  <path d="M86,16 L87,19 L90,20 L87,21 L86,24 L85,21 L82,20 L85,19 Z" fill="#FFF176" opacity="0.8"/>
  <!-- Magic wand sparkle bottom-left -->
  <path d="M18,94 L20,100 L26,102 L20,104 L18,110 L16,104 L10,102 L16,100 Z" fill="#FFF176"/>
</svg>
